<svg width="134" height="183" viewBox="0 0 134 183" fill="none" xmlns="http://www.w3.org/2000/svg">
<path d="M39.2543 176.626C40.7264 176.63 41.8277 177.74 41.824 179.217C41.8203 180.694 40.7134 181.799 39.2413 181.796C37.7691 181.792 36.6678 180.681 36.6715 179.204C36.6752 177.727 37.9048 176.623 39.2543 176.626Z" fill="#FFCF2D"/>
<path d="M39.3094 154.593C40.7816 154.596 41.8829 155.707 41.8792 157.184C41.8755 158.661 40.7686 159.766 39.2965 159.762C37.8243 159.759 36.723 158.648 36.7267 157.171C36.7301 155.817 37.96 154.589 39.3094 154.593Z" fill="#FFCF2D"/>
<path d="M39.3646 132.685C40.8368 132.688 41.9381 133.799 41.9344 135.276C41.9307 136.753 40.8238 137.858 39.3516 137.854C37.8795 137.85 36.7782 136.74 36.7819 135.263C36.7856 133.786 38.0152 132.681 39.3646 132.685Z" fill="#FFCF2D"/>
<path d="M39.4203 110.651C40.8924 110.655 41.9938 111.766 41.9901 113.243C41.9863 114.72 40.8794 115.825 39.4073 115.821C37.9352 115.817 36.8338 114.707 36.8375 113.23C36.8413 111.753 38.0708 110.648 39.4203 110.651Z" fill="#FFCF2D"/>
<path d="M39.4755 88.6191C40.9476 88.6228 42.0489 89.7333 42.0452 91.2104C42.0415 92.6874 40.9346 93.7924 39.4625 93.7887C37.9903 93.785 36.889 92.6745 36.8927 91.1974C36.8961 89.8435 38.126 88.6157 39.4755 88.6191Z" fill="#FFCF2D"/>
<path d="M39.5306 66.5868C41.0028 66.5905 42.1041 67.7011 42.1004 69.1781C42.0967 70.6552 40.9898 71.7602 39.5177 71.7565C38.0455 71.7528 36.9442 70.6422 36.9479 69.1652C36.9516 67.6882 38.1812 66.5835 39.5306 66.5868Z" fill="#FFCF2D"/>
<path d="M39.5858 44.6777C41.058 44.6814 42.1593 45.7919 42.1556 47.2689C42.1519 48.746 41.045 49.851 39.5728 49.8473C38.1007 49.8436 36.9994 48.733 37.0031 47.256C37.0068 45.779 38.2364 44.6743 39.5858 44.6777Z" fill="#FFCF2D"/>
<path d="M39.641 22.6445C41.1131 22.6482 42.2145 23.7587 42.2108 25.2358C42.207 26.7128 41.1002 27.8178 39.628 27.8141C38.1559 27.8104 37.0545 26.6998 37.0583 25.2228C37.062 23.7458 38.2915 22.6411 39.641 22.6445Z" fill="#FFCF2D"/>
<path d="M39.6967 0.612261C41.1688 0.615959 42.2701 1.72649 42.2664 3.20352C42.2627 4.68055 41.1558 5.78556 39.6837 5.78186C38.2115 5.77816 37.1102 4.66761 37.1139 3.19058C37.1173 1.83664 38.3472 0.608872 39.6967 0.612261Z" fill="#FFCF2D"/>
<path d="M57.5331 176.672C59.0052 176.676 60.1066 177.786 60.1029 179.263C60.0991 180.74 58.9923 181.845 57.5201 181.841C56.048 181.838 54.9466 180.727 54.9503 179.25C54.954 177.773 56.0609 176.668 57.5331 176.672Z" fill="#FFCF2D"/>
<path d="M57.5888 154.639C59.0609 154.642 60.1622 155.753 60.1585 157.23C60.1548 158.707 59.0479 159.812 57.5758 159.808C56.1036 159.805 55.0023 158.694 55.006 157.217C55.0094 155.863 56.1166 154.635 57.5888 154.639Z" fill="#FFCF2D"/>
<path d="M57.6439 132.73C59.1161 132.734 60.2174 133.845 60.2137 135.322C60.21 136.799 59.1031 137.904 57.6309 137.9C56.1588 137.896 55.0575 136.786 55.0612 135.309C55.0649 133.832 56.1718 132.727 57.6439 132.73Z" fill="#FFCF2D"/>
<path d="M57.6991 110.697C59.1712 110.701 60.2726 111.811 60.2689 113.288C60.2652 114.766 59.1583 115.871 57.6861 115.867C56.214 115.863 55.1126 114.753 55.1164 113.276C55.1201 111.799 56.227 110.694 57.6991 110.697Z" fill="#FFCF2D"/>
<path d="M57.7543 88.665C59.2264 88.6687 60.3277 89.7792 60.324 91.2563C60.3203 92.7333 59.2134 93.8383 57.7413 93.8346C56.2692 93.8309 55.1678 92.7203 55.1715 91.2433C55.1749 89.8894 56.2821 88.6613 57.7543 88.665Z" fill="#FFCF2D"/>
<path d="M57.8099 66.6327C59.2821 66.6364 60.3834 67.747 60.3797 69.224C60.376 70.7011 59.2691 71.8061 57.797 71.8024C56.3248 71.7987 55.2235 70.6881 55.2272 69.2111C55.2309 67.7341 56.3378 66.629 57.8099 66.6327Z" fill="#FFCF2D"/>
<path d="M57.8646 44.7236C59.3368 44.7273 60.4381 45.8378 60.4344 47.3148C60.4307 48.7919 59.3238 49.8969 57.8516 49.8932C56.3795 49.8895 55.2782 48.7789 55.2819 47.3019C55.2856 45.8249 56.3925 44.7199 57.8646 44.7236Z" fill="#FFCF2D"/>
<path d="M57.9203 22.6904C59.3924 22.6941 60.4938 23.8046 60.4901 25.2816C60.4863 26.7587 59.3795 27.8637 57.9073 27.86C56.4352 27.8563 55.3338 26.7457 55.3375 25.2687C55.3413 23.7917 56.4482 22.6867 57.9203 22.6904Z" fill="#FFCF2D"/>
<path d="M57.9755 0.658145C59.4476 0.661842 60.5489 1.77238 60.5452 3.24941C60.5415 4.72645 59.4346 5.83146 57.9625 5.82776C56.4903 5.82406 55.389 4.71351 55.3927 3.23647C55.3961 1.88252 56.5033 0.654447 57.9755 0.658145Z" fill="#FFCF2D"/>
<path d="M2.81873 176.534C4.29087 176.538 5.3922 177.648 5.38849 179.125C5.38478 180.602 4.27789 181.707 2.80574 181.704C1.3336 181.7 0.232275 180.589 0.235985 179.112C0.239694 177.635 1.34658 176.53 2.81873 176.534Z" fill="#FFCF2D"/>
<path d="M2.87391 154.502C4.34605 154.506 5.44738 155.616 5.44367 157.093C5.43996 158.57 4.33306 159.675 2.86092 159.672C1.38878 159.668 0.28745 158.557 0.29116 157.08C0.294561 155.726 1.40176 154.498 2.87391 154.502Z" fill="#FFCF2D"/>
<path d="M2.92908 132.593C4.40122 132.596 5.50255 133.707 5.49884 135.184C5.49513 136.661 4.38824 137.766 2.9161 137.762C1.44395 137.759 0.342935 136.525 0.346336 135.171C0.350046 133.694 1.45694 132.589 2.92908 132.593Z" fill="#FFCF2D"/>
<path d="M2.98426 110.56C4.4564 110.563 5.55773 111.674 5.55402 113.151C5.55031 114.628 4.44342 115.733 2.97127 115.729C1.49913 115.725 0.398111 114.492 0.401512 113.138C0.404913 111.784 1.51211 110.556 2.98426 110.56Z" fill="#FFCF2D"/>
<path d="M3.03992 88.5273C4.51207 88.531 5.61339 89.6415 5.60968 91.1186C5.60597 92.5956 4.49908 93.7006 3.02694 93.6969C1.55479 93.6932 0.453466 92.5827 0.457176 91.1056C0.460577 89.7517 1.56778 88.5236 3.03992 88.5273Z" fill="#FFCF2D"/>
<path d="M3.0951 66.4951C4.56724 66.4987 5.66857 67.6093 5.66486 69.0863C5.66115 70.5634 4.55426 71.6684 3.08211 71.6647C1.60997 71.661 0.508642 70.5504 0.512352 69.0734C0.516062 67.5964 1.62295 66.4914 3.0951 66.4951Z" fill="#FFCF2D"/>
<path d="M3.15027 44.5859C4.62242 44.5896 5.72374 45.7001 5.72003 47.1772C5.71632 48.6542 4.60943 49.7592 3.13729 49.7555C1.66514 49.7518 0.563818 48.6412 0.567528 47.1642C0.571237 45.6872 1.67813 44.5822 3.15027 44.5859Z" fill="#FFCF2D"/>
<path d="M3.20545 22.5536C4.67759 22.5573 5.77892 23.6679 5.77521 25.1449C5.7715 26.622 4.66461 27.727 3.19246 27.7233C1.72032 27.7196 0.618993 26.609 0.622703 25.132C0.626413 23.655 1.7333 22.5499 3.20545 22.5536Z" fill="#FFCF2D"/>
<path d="M3.26062 0.520464C4.73277 0.524162 5.83409 1.6347 5.83038 3.11173C5.82667 4.58876 4.71978 5.69376 3.24764 5.69006C1.77549 5.68637 0.674169 4.57581 0.677879 3.09878C0.68128 1.74484 1.78848 0.516767 3.26062 0.520464Z" fill="#FFCF2D"/>
<path d="M21.098 176.58C22.5702 176.584 23.6715 177.694 23.6678 179.171C23.6641 180.648 22.4345 181.753 21.085 181.75C19.6129 181.746 18.5116 180.635 18.5153 179.158C18.519 177.681 19.6259 176.576 21.098 176.58Z" fill="#FFCF2D"/>
<path d="M21.1532 154.548C22.6253 154.551 23.7267 155.662 23.723 157.139C23.7193 158.616 22.6124 159.721 21.1402 159.717C19.6681 159.714 18.5667 158.603 18.5705 157.126C18.5739 155.772 19.6811 154.544 21.1532 154.548Z" fill="#FFCF2D"/>
<path d="M21.2084 132.639C22.6805 132.642 23.7818 133.753 23.7781 135.23C23.7744 136.707 22.6675 137.812 21.1954 137.808C19.7232 137.805 18.6219 136.694 18.6256 135.217C18.6293 133.74 19.7362 132.635 21.2084 132.639Z" fill="#FFCF2D"/>
<path d="M21.2636 110.605C22.7357 110.609 23.837 111.72 23.8333 113.197C23.8296 114.674 22.7227 115.779 21.2506 115.775C19.7784 115.771 18.6771 114.661 18.6808 113.184C18.6845 111.707 19.7914 110.602 21.2636 110.605Z" fill="#FFCF2D"/>
<path d="M21.3192 88.5732C22.7914 88.5769 23.8927 89.6874 23.889 91.1645C23.8853 92.6415 22.7784 93.7465 21.3062 93.7428C19.8341 93.7391 18.7328 92.6286 18.7365 91.1515C18.7399 89.7976 19.8471 88.5695 21.3192 88.5732Z" fill="#FFCF2D"/>
<path d="M21.3744 66.5409C22.8465 66.5446 23.9479 67.6552 23.9442 69.1322C23.9404 70.6093 22.8336 71.7143 21.3614 71.7106C19.8893 71.7069 18.7879 70.5963 18.7916 69.1193C18.7954 67.6423 19.9022 66.5373 21.3744 66.5409Z" fill="#FFCF2D"/>
<path d="M21.4296 44.6318C22.9017 44.6355 24.003 45.746 23.9993 47.2231C23.9956 48.7001 22.8887 49.8051 21.4166 49.8014C19.9444 49.7977 18.8431 48.6871 18.8468 47.2101C18.8505 45.7331 19.9574 44.6281 21.4296 44.6318Z" fill="#FFCF2D"/>
<path d="M21.4847 22.5995C22.9569 22.6032 24.0582 23.7138 24.0545 25.1908C24.0508 26.6679 22.9439 27.7729 21.4718 27.7692C19.9996 27.7655 18.8983 26.6549 18.902 25.1779C18.9057 23.7008 20.0126 22.5958 21.4847 22.5995Z" fill="#FFCF2D"/>
<path d="M21.5399 0.566348C23.0121 0.570045 24.1134 1.68058 24.1097 3.15762C24.106 4.63465 22.9991 5.73966 21.5269 5.73596C20.0548 5.73227 18.9535 4.62171 18.9572 3.14468C18.9606 1.79073 20.0678 0.56265 21.5399 0.566348Z" fill="#FFCF2D"/>
<path d="M75.6898 176.717C77.162 176.72 78.2633 177.831 78.2596 179.308C78.2559 180.785 77.149 181.89 75.6768 181.886C74.2047 181.883 73.1034 180.772 73.1071 179.295C73.1108 177.818 74.3404 176.713 75.6898 176.717Z" fill="#FFCF2D"/>
<path d="M75.7455 154.685C77.2176 154.688 78.3189 155.799 78.3152 157.276C78.3115 158.753 77.2046 159.858 75.7325 159.854C74.2604 159.85 73.159 158.74 73.1627 157.263C73.1661 155.909 74.396 154.681 75.7455 154.685Z" fill="#FFCF2D"/>
<path d="M75.8002 132.775C77.2723 132.779 78.3736 133.89 78.3699 135.367C78.3662 136.844 77.2593 137.949 75.7872 137.945C74.315 137.941 73.2137 136.831 73.2174 135.354C73.2211 133.877 74.4507 132.772 75.8002 132.775Z" fill="#FFCF2D"/>
<path d="M75.8558 110.743C77.328 110.747 78.4293 111.857 78.4256 113.334C78.4219 114.811 77.315 115.916 75.8428 115.913C74.3707 115.909 73.2694 114.798 73.2731 113.321C73.2768 111.844 74.5064 110.74 75.8558 110.743Z" fill="#FFCF2D"/>
<path d="M75.911 88.7109C77.3832 88.7146 78.4845 89.8251 78.4808 91.3022C78.4771 92.7792 77.3702 93.8842 75.898 93.8805C74.4259 93.8768 73.3246 92.7662 73.3283 91.2892C73.3317 89.9353 74.5615 88.7075 75.911 88.7109Z" fill="#FFCF2D"/>
<path d="M75.9662 66.6777C77.4383 66.6814 78.5397 67.7919 78.5359 69.269C78.5322 70.746 77.4253 71.851 75.9532 71.8473C74.4811 71.8436 73.3797 70.733 73.3834 69.256C73.3872 67.779 74.6167 66.6743 75.9662 66.6777Z" fill="#FFCF2D"/>
<path d="M76.0214 44.7685C77.4935 44.7722 78.5948 45.8827 78.5911 47.3598C78.5874 48.8368 77.4805 49.9418 76.0084 49.9381C74.5362 49.9344 73.4349 48.8239 73.4386 47.3468C73.4423 45.8698 74.6719 44.7651 76.0214 44.7685Z" fill="#FFCF2D"/>
<path d="M76.0765 22.7363C77.5487 22.74 78.65 23.8505 78.6463 25.3275C78.6426 26.8046 77.5357 27.9096 76.0636 27.9059C74.5914 27.9022 73.4901 26.7916 73.4938 25.3146C73.4975 23.8376 74.7271 22.7329 76.0765 22.7363Z" fill="#FFCF2D"/>
<path d="M76.1322 0.704043C77.6043 0.707741 78.7057 1.81828 78.702 3.29531C78.6982 4.77235 77.5914 5.87736 76.1192 5.87366C74.6471 5.86996 73.5458 4.7594 73.5495 3.28237C73.5529 1.92842 74.7827 0.700653 76.1322 0.704043Z" fill="#FFCF2D"/>
<path d="M93.9691 176.763C95.4413 176.766 96.5426 177.877 96.5389 179.354C96.5352 180.831 95.4283 181.936 93.9561 181.932C92.484 181.929 91.3827 180.818 91.3864 179.341C91.3901 177.864 92.497 176.759 93.9691 176.763Z" fill="#FFCF2D"/>
<path d="M94.0243 154.73C95.4964 154.734 96.5978 155.845 96.594 157.322C96.5903 158.799 95.4834 159.904 94.0113 159.9C92.5392 159.896 91.4378 158.786 91.4416 157.309C91.445 155.955 92.5521 154.727 94.0243 154.73Z" fill="#FFCF2D"/>
<path d="M94.0795 132.821C95.5516 132.825 96.6529 133.935 96.6492 135.413C96.6455 136.89 95.5386 137.995 94.0665 137.991C92.5943 137.987 91.493 136.877 91.4967 135.4C91.5004 133.923 92.6073 132.818 94.0795 132.821Z" fill="#FFCF2D"/>
<path d="M96.7044 113.38C96.708 111.953 95.5575 110.793 94.1346 110.789C92.7118 110.785 91.5555 111.94 91.5519 113.367C91.5483 114.795 92.6988 115.955 94.1217 115.959C95.5445 115.962 96.7008 114.808 96.7044 113.38Z" fill="#FFCF2D"/>
<path d="M94.1898 88.7568C95.662 88.7605 96.7633 89.871 96.7596 91.3481C96.7559 92.8251 95.649 93.9301 94.1768 93.9264C92.7047 93.9227 91.6034 92.8121 91.6071 91.3351C91.6105 89.9812 92.7177 88.7531 94.1898 88.7568Z" fill="#FFCF2D"/>
<path d="M94.2455 66.7236C95.7176 66.7273 96.8189 67.8378 96.8152 69.3148C96.8115 70.7919 95.7046 71.8969 94.2325 71.8932C92.7604 71.8895 91.659 70.7789 91.6627 69.3019C91.6665 67.8249 92.7733 66.7199 94.2455 66.7236Z" fill="#FFCF2D"/>
<path d="M94.3002 44.8144C95.7723 44.8181 96.8736 45.9286 96.8699 47.4057C96.8662 48.8827 95.7593 49.9877 94.2872 49.984C92.815 49.9803 91.7137 48.8698 91.7174 47.3927C91.7211 45.9157 92.828 44.8107 94.3002 44.8144Z" fill="#FFCF2D"/>
<path d="M96.9256 25.3734C96.9292 23.9459 95.7787 22.7857 94.3558 22.7822C92.933 22.7786 91.7767 23.9329 91.7731 25.3605C91.7695 26.7881 92.92 27.9482 94.3428 27.9518C95.7657 27.9554 96.922 26.801 96.9256 25.3734Z" fill="#FFCF2D"/>
<path d="M94.411 0.749941C95.8832 0.753639 96.9845 1.86418 96.9808 3.34121C96.9771 4.81824 95.8702 5.92325 94.398 5.91956C92.9259 5.91586 91.8246 4.8053 91.8283 3.32827C91.8317 1.97432 92.9389 0.746244 94.411 0.749941Z" fill="#FFCF2D"/>
<path d="M112.248 176.809C113.721 176.812 114.822 177.923 114.818 179.4C114.814 180.877 113.708 181.982 112.235 181.978C110.763 181.974 109.662 180.864 109.666 179.387C109.669 177.91 110.776 176.805 112.248 176.809Z" fill="#FFCF2D"/>
<path d="M112.304 154.776C113.776 154.78 114.877 155.891 114.873 157.368C114.87 158.845 113.763 159.95 112.291 159.946C110.818 159.942 109.717 158.832 109.721 157.355C109.724 156.001 110.831 154.773 112.304 154.776Z" fill="#FFCF2D"/>
<path d="M112.359 132.867C113.831 132.871 114.932 133.981 114.929 135.458C114.925 136.935 113.818 138.04 112.346 138.037C110.874 138.033 109.772 136.922 109.776 135.445C109.78 133.968 110.887 132.863 112.359 132.867Z" fill="#FFCF2D"/>
<path d="M112.414 110.835C113.886 110.839 114.987 111.949 114.984 113.426C114.98 114.903 113.873 116.008 112.401 116.005C110.929 116.001 109.827 114.89 109.831 113.413C109.835 111.936 110.942 110.831 112.414 110.835Z" fill="#FFCF2D"/>
<path d="M112.469 88.8027C113.941 88.8064 115.043 89.9169 115.039 91.394C115.035 92.871 113.928 93.976 112.456 93.9723C110.984 93.9686 109.883 92.858 109.886 91.381C109.89 90.0271 110.997 88.799 112.469 88.8027Z" fill="#FFCF2D"/>
<path d="M112.525 66.7695C113.997 66.7732 115.098 67.8837 115.095 69.3608C115.091 70.8378 113.984 71.9428 112.512 71.9391C111.04 71.9354 109.938 70.8248 109.942 69.3478C109.946 67.8708 111.053 66.7658 112.525 66.7695Z" fill="#FFCF2D"/>
<path d="M112.579 44.8603C114.052 44.864 115.153 45.9745 115.149 47.4516C115.146 48.9286 114.039 50.0336 112.566 50.0299C111.094 50.0262 109.993 48.9157 109.997 47.4386C110 45.9616 111.107 44.8566 112.579 44.8603Z" fill="#FFCF2D"/>
<path d="M112.635 22.8281C114.107 22.8317 115.209 23.9423 115.205 25.4193C115.201 26.8964 114.094 28.0014 112.622 27.9977C111.15 27.994 110.049 26.8834 110.052 25.4064C110.056 23.9294 111.163 22.8244 112.635 22.8281Z" fill="#FFCF2D"/>
<path d="M112.69 0.79584C114.162 0.799538 115.264 1.91007 115.26 3.38711C115.256 4.86414 114.149 5.96915 112.677 5.96546C111.205 5.96176 110.104 4.8512 110.108 3.37417C110.111 2.02022 111.218 0.792142 112.69 0.79584Z" fill="#FFCF2D"/>
<path d="M130.405 176.854C131.877 176.858 132.978 177.969 132.974 179.446C132.971 180.923 131.864 182.028 130.392 182.024C128.92 182.02 127.818 180.91 127.822 179.433C127.826 177.956 129.055 176.851 130.405 176.854Z" fill="#FFCF2D"/>
<path d="M130.46 154.822C131.932 154.826 133.033 155.936 133.03 157.413C133.026 158.891 131.919 159.996 130.447 159.992C128.975 159.988 127.873 158.878 127.877 157.401C127.88 156.047 129.11 154.819 130.46 154.822Z" fill="#FFCF2D"/>
<path d="M130.515 132.913C131.987 132.917 133.088 134.027 133.085 135.504C133.081 136.981 131.974 138.086 130.502 138.083C129.03 138.079 127.929 136.968 127.932 135.491C127.936 134.014 129.166 132.91 130.515 132.913Z" fill="#FFCF2D"/>
<path d="M130.57 110.881C132.042 110.884 133.144 111.995 133.14 113.472C133.136 114.949 132.029 116.054 130.557 116.05C129.085 116.047 127.984 114.936 127.987 113.459C127.991 111.982 129.221 110.877 130.57 110.881Z" fill="#FFCF2D"/>
<path d="M130.626 88.8476C132.098 88.8513 133.199 89.9618 133.196 91.4389C133.192 92.9159 132.085 94.0209 130.613 94.0172C129.141 94.0135 128.039 92.903 128.043 91.4259C128.047 90.072 129.276 88.8442 130.626 88.8476Z" fill="#FFCF2D"/>
<path d="M130.681 66.8154C132.153 66.8191 133.254 67.9296 133.251 69.4066C133.247 70.8837 132.14 71.9887 130.668 71.985C129.196 71.9813 128.095 70.8707 128.098 69.3937C128.102 67.9167 129.332 66.812 130.681 66.8154Z" fill="#FFCF2D"/>
<path d="M130.736 44.9062C132.208 44.9099 133.31 46.0204 133.306 47.4975C133.302 48.9745 132.195 50.0795 130.723 50.0758C129.251 50.0721 128.15 48.9616 128.153 47.4845C128.157 46.0075 129.387 44.9028 130.736 44.9062Z" fill="#FFCF2D"/>
<path d="M130.791 22.8739C132.264 22.8776 133.365 23.9882 133.361 25.4652C133.357 26.9423 132.251 28.0473 130.778 28.0436C129.306 28.0399 128.205 26.9293 128.209 25.4523C128.212 23.9753 129.442 22.8706 130.791 22.8739Z" fill="#FFCF2D"/>
<path d="M130.847 0.840762C132.319 0.844459 133.42 1.955 133.416 3.43203C133.413 4.90907 132.306 6.01407 130.834 6.01038C129.361 6.00668 128.26 4.89612 128.264 3.41909C128.267 2.06514 129.497 0.837372 130.847 0.840762Z" fill="#FFCF2D"/>
</svg>
